<?xml version="1.0" encoding="UTF-8"?>
<svg version="1.1" xmlns="http://www.w3.org/2000/svg" width="526" height="474">
<path d="M0 0 C14.06561897 11.00531693 14.06561897 11.00531693 16.6171875 20.1484375 C18.03655517 38.95505917 18.03655517 38.95505917 11.6796875 46.5234375 C5.80559818 52.78350394 0.12874948 57.10790647 -7.58203125 60.96875 C-10.22062163 62.51230517 -12.00028568 64.29588849 -14.1328125 66.4609375 C-14.7928125 66.4609375 -15.4528125 66.4609375 -16.1328125 66.4609375 C-16.37386719 67.00492187 -16.61492187 67.54890625 -16.86328125 68.109375 C-18.44324689 71.0359575 -20.38368329 73.47431556 -22.4453125 76.0859375 C-27.20722482 82.17388502 -31.72819999 88.41526632 -36.21704102 94.70629883 C-40.2192289 100.28253421 -44.38631829 105.69660895 -48.79467773 110.95874023 C-51.38039096 114.13111556 -52.76238828 116.37989091 -53.1328125 120.4609375 C-52.37336629 123.14682484 -52.37336629 123.14682484 -51.03515625 125.85546875 C-50.56601807 126.88551025 -50.09687988 127.91555176 -49.61352539 128.97680664 C-49.10426514 130.06469482 -48.59500488 131.15258301 -48.0703125 132.2734375 C-47.0439271 134.53772855 -46.02048142 136.80335449 -45 139.0703125 C-44.50338867 140.16923828 -44.00677734 141.26816406 -43.49511719 142.40039062 C-28.6095707 175.84218467 -27.46065358 209.94223717 -35.54345703 245.3815918 C-37.74830265 255.56135917 -36.94355893 264.80343476 -34.1328125 274.7734375 C-32.05646158 282.36415517 -30.95286058 289.5807406 -30.9453125 297.4609375 C-30.93306641 298.13382812 -30.92082031 298.80671875 -30.90820312 299.5 C-30.88746339 306.66212342 -32.463138 312.15073533 -36.6328125 317.9609375 C-37.24125 318.8375 -37.8496875 319.7140625 -38.4765625 320.6171875 C-44.08969813 326.62654447 -48.89289793 330.70123805 -57.32498169 331.17141724 C-61.28730478 331.24687036 -65.23500464 331.14619155 -69.1953125 331.0234375 C-70.78837996 331.00542115 -72.3814846 330.99043019 -73.97460938 330.97851562 C-82.54033594 330.86821317 -90.96903347 330.30320978 -99.45851135 329.14393616 C-111.12679567 327.56642978 -121.24152929 329.73365455 -132.32324219 333.20117188 C-163.65336111 342.92472823 -199.88198245 337.44643762 -228.74365234 322.46240234 C-233.8430166 319.71865697 -238.79908611 316.7284137 -243.6796875 313.61328125 C-246.56112391 312.25974026 -247.21660554 312.42467093 -250.1328125 313.4609375 C-251.87973424 314.57915454 -251.87973424 314.57915454 -253.53125 316.015625 C-254.16788574 316.54212646 -254.80452148 317.06862793 -255.46044922 317.61108398 C-256.47389404 318.46488647 -256.47389404 318.46488647 -257.5078125 319.3359375 C-258.95496633 320.53347453 -260.40289605 321.7300745 -261.8515625 322.92578125 C-262.93630859 323.82466064 -262.93630859 323.82466064 -264.04296875 324.74169922 C-268.70138331 328.57400709 -273.47194244 332.26448871 -278.22998047 335.97167969 C-280.32047343 337.60781095 -282.40054707 339.25670406 -284.48046875 340.90625 C-316.74917797 366.4019168 -316.74917797 366.4019168 -333.3828125 368.9609375 C-339.00733211 368.21100155 -343.33408147 365.37662218 -348.1328125 362.4609375 C-349.38663656 336.68788742 -335.73532767 316.75397967 -319.46582031 298.01611328 C-317.44959182 295.6638467 -315.51309516 293.24896967 -313.5703125 290.8359375 C-310.53480871 287.09034265 -307.36923716 283.53860265 -304.0703125 280.0234375 C-295.14634981 271.01872369 -295.14634981 271.01872369 -290.98046875 259.59765625 C-291.48486394 256.46531974 -292.27280696 253.51468597 -293.1328125 250.4609375 C-293.70521699 247.76187229 -294.1977581 245.04963821 -294.6953125 242.3359375 C-294.94410156 241.07523438 -295.19289063 239.81453125 -295.44921875 238.515625 C-296.86280297 230.67000835 -297.29966119 222.77570714 -297.37109375 214.81640625 C-297.3791655 213.92593094 -297.38723724 213.03545563 -297.39555359 212.11799622 C-297.40928754 210.24152507 -297.42005668 208.36503007 -297.42797852 206.48852539 C-297.43941478 204.61475015 -297.45973136 202.74100528 -297.48950195 200.86743164 C-297.72452382 186.00328346 -296.76031643 171.28250911 -291.99926758 157.0793457 C-288.85133305 147.56635675 -294.08064827 134.76122386 -296.94580078 125.6159668 C-301.0949218 112.32464939 -302.96668136 98.27402402 -300.1328125 84.4609375 C-295.5845546 76.54645483 -286.66707847 66.27026748 -277.6640625 63.77734375 C-261.20229094 60.42487623 -245.56903489 63.62439964 -230.3515625 70.09765625 C-217.4166764 75.57614563 -204.31417598 73.59755041 -190.8828125 70.9609375 C-180.91096034 69.158991 -171.17189399 67.9668936 -161.0078125 67.9609375 C-159.47398926 67.95223633 -159.47398926 67.95223633 -157.90917969 67.94335938 C-148.01623049 68.10591194 -138.90392903 70.61540688 -129.6953125 74.0859375 C-121.15709534 77.29141152 -111.89004554 79.80348513 -103.0703125 76.21484375 C-90.93980069 69.37563592 -80.84578994 59.52211403 -70.63671875 50.17578125 C-65.68774275 45.67460651 -60.64305766 41.38990646 -55.359375 37.28515625 C-54.62460937 36.68316406 -53.88984375 36.08117187 -53.1328125 35.4609375 C-52.44703125 34.914375 -51.76125 34.3678125 -51.0546875 33.8046875 C-48.21656119 30.34355785 -47.15247162 26.48499173 -45.7578125 22.2734375 C-39.37618463 4.08262357 -39.37618463 4.08262357 -30.1328125 -0.5390625 C-21.64435934 -3.68293404 -7.98416251 -5.0034085 0 0 Z M-27.90234375 19.42578125 C-30.76194962 24.15547858 -28.84190835 29.55404363 -27.61230469 34.59472656 C-27.12705317 36.55210879 -26.63077457 38.5067502 -26.1328125 40.4609375 C-23.38521539 41.01885569 -20.63612218 41.5576602 -17.8828125 42.0859375 C-17.10550781 42.24578125 -16.32820313 42.405625 -15.52734375 42.5703125 C-11.16149644 43.42994515 -11.16149644 43.42994515 -6.8359375 42.796875 C-6.27390625 42.35601562 -5.711875 41.91515625 -5.1328125 41.4609375 C-4.40320313 40.92210938 -3.67359375 40.38328125 -2.921875 39.828125 C0.85493835 34.83085668 -0.38033387 27.39580927 -1.1328125 21.4609375 C-2.05922481 18.89224881 -2.71567869 17.8585023 -4.8984375 16.2578125 C-12.50265872 13.54581752 -21.73570493 13.86397268 -27.90234375 19.42578125 Z M-46.8828125 52.8359375 C-51.48453828 56.45089087 -56.14821387 59.92281061 -60.9453125 63.2734375 C-68.37709397 68.49715761 -75.35195067 74.24436514 -82.36181641 80.01464844 C-85.89646075 82.90122593 -89.50652996 85.69086056 -93.1328125 88.4609375 C-88.74719667 94.92757103 -83.42726527 102.58083032 -75.80078125 105.2890625 C-70.69127828 106.08987046 -66.57463896 105.19620615 -62.1328125 102.4609375 C-59.89889417 100.34420252 -58.09128053 97.98905074 -56.2578125 95.5234375 C-55.7431543 94.85538086 -55.22849609 94.18732422 -54.69824219 93.49902344 C-53.16169695 91.49703185 -51.64578679 89.4807734 -50.1328125 87.4609375 C-49.3029425 86.37043939 -48.47228046 85.28054332 -47.640625 84.19140625 C-45.44844701 81.29757959 -43.28921015 78.38147606 -41.1328125 75.4609375 C-40.38644531 74.47867188 -39.64007813 73.49640625 -38.87109375 72.484375 C-38.15308594 71.52789062 -37.43507813 70.57140625 -36.6953125 69.5859375 C-36.05722656 68.74289063 -35.41914063 67.89984375 -34.76171875 67.03125 C-32.10288164 62.83577082 -31.1328125 59.42045182 -31.1328125 54.4609375 C-33.1128125 54.4609375 -35.0928125 54.4609375 -37.1328125 54.4609375 C-37.7928125 52.4809375 -38.4528125 50.5009375 -39.1328125 48.4609375 C-42.37839731 48.4609375 -44.438008 50.88446795 -46.8828125 52.8359375 Z M-280.0625 85.25390625 C-284.984037 93.33134409 -284.49573068 104.80424565 -282.65234375 113.80761719 C-280.69215818 122.32401068 -280.69215818 122.32401068 -276.1328125 129.4609375 C-275.70572998 129.02338135 -275.27864746 128.5858252 -274.83862305 128.13500977 C-267.45887149 120.59876905 -260.14943239 113.23429589 -251.87890625 106.67578125 C-248.5095204 103.95822538 -245.2397687 101.15237484 -242.0078125 98.2734375 C-241.43844971 97.78584961 -240.86908691 97.29826172 -240.2824707 96.79589844 C-237.52398486 94.30468973 -236.20403899 92.73718078 -235.265625 89.09765625 C-235.22179687 88.22753906 -235.17796875 87.35742188 -235.1328125 86.4609375 C-247.25796804 80.80253158 -268.83442156 74.82133944 -280.0625 85.25390625 Z M-243.1328125 117.4609375 C-244.00808594 118.22664063 -244.88335937 118.99234375 -245.78515625 119.78125 C-250.73197527 124.1701571 -255.64326683 128.59999389 -260.1328125 133.4609375 C-260.71417969 134.08613281 -261.29554688 134.71132812 -261.89453125 135.35546875 C-265.34277416 139.43066492 -267.06197877 142.58001669 -266.64453125 147.98828125 C-263.40162775 163.65818898 -251.92904122 176.33535928 -242.1328125 188.4609375 C-241.36839844 189.4096875 -240.60398437 190.3584375 -239.81640625 191.3359375 C-232.08772074 200.84816582 -224.12644791 210.17103689 -216.1328125 219.4609375 C-214.85921875 219.120625 -213.585625 218.7803125 -212.2734375 218.4296875 C-207.00506167 217.25985268 -202.22504862 217.52317025 -196.8828125 217.9609375 C-183.24175053 218.81432559 -171.39409511 218.08400543 -160.375 209.25 C-151.72075913 201.5650341 -143.96004733 192.97064447 -136.1328125 184.4609375 C-135.04354108 183.28462601 -133.95372607 182.10881757 -132.86328125 180.93359375 C-121.01372551 168.15106113 -109.43025698 155.16843418 -98.09765625 141.92578125 C-97.61176025 141.35964111 -97.12586426 140.79350098 -96.62524414 140.21020508 C-95.59684824 139.0048302 -94.57559745 137.79333487 -93.56030273 136.5769043 C-90.99076865 133.51686301 -88.55222726 130.7840721 -85.3203125 128.3984375 C-82.85938688 126.33761783 -82.14275281 125.48529127 -80.8828125 122.3984375 C-81.16063511 119.13402179 -81.86111586 117.95383034 -84.3359375 115.8515625 C-84.92890625 115.39265625 -85.521875 114.93375 -86.1328125 114.4609375 C-87.14601563 113.61789063 -87.14601563 113.61789063 -88.1796875 112.7578125 C-134.76655849 76.25981803 -199.14164797 78.64125338 -243.1328125 117.4609375 Z M-77.1328125 138.4609375 C-78.21614415 139.64598081 -79.27155858 140.85688106 -80.3046875 142.0859375 C-84.8635493 147.37777392 -89.83629251 152.2144447 -94.81640625 157.10546875 C-98.8943483 161.1391655 -102.78823934 165.2553379 -106.52929688 169.60351562 C-108.83871309 172.27861285 -111.23453433 174.86515407 -113.6328125 177.4609375 C-116.60798089 180.68437095 -119.55057963 183.92293521 -122.3828125 187.2734375 C-131.30241665 197.55365923 -141.30666735 207.66959009 -152.2578125 215.7734375 C-156.23447344 219.49075098 -158.58292554 223.68972044 -161.1328125 228.4609375 C-161.56207031 229.21890625 -161.99132812 229.976875 -162.43359375 230.7578125 C-166.40133939 238.44787622 -164.96168754 244.96480473 -162.55859375 253.0078125 C-162.07669855 255.78423624 -162.21517313 258.41080944 -162.30126953 261.21728516 C-162.3482727 266.44668941 -162.21076349 270.12317268 -158.84765625 274.296875 C-156.04895118 276.4834739 -153.27544809 278.38630514 -150.23095703 280.19970703 C-147.95468024 281.56801584 -145.74738773 283.01882939 -143.53515625 284.48828125 C-123.36509128 298.38142269 -123.36509128 298.38142269 -100.1328125 303.4609375 C-94.96513901 301.35802297 -91.1701166 298.19709642 -87.1328125 294.4609375 C-86.57819336 293.96400391 -86.02357422 293.46707031 -85.45214844 292.95507812 C-61.87410238 271.60903299 -48.59573409 241.55745371 -47.00708008 209.96020508 C-46.20354736 183.03805666 -51.98918325 156.60077189 -68.1328125 134.4609375 C-72.06975166 134.4609375 -74.20923839 136.01281157 -77.1328125 138.4609375 Z M-276.1328125 166.4609375 C-286.39364083 196.76458383 -281.74883708 231.7718304 -268.30078125 260.4453125 C-264.11734391 268.65386204 -257.99622533 277.2518413 -251.1328125 283.4609375 C-245.05999954 284.35112896 -239.94035847 281.74952846 -235.1484375 278.28125 C-231.18434529 274.70127525 -228.8083282 270.48748461 -227.1328125 265.4609375 C-226.84432758 258.93608734 -226.92924191 252.44154315 -227.7578125 245.9609375 C-228.23976422 241.91386349 -227.58385361 239.30192866 -226.1328125 235.4609375 C-225.7282936 232.22478634 -225.44995875 229.6530094 -227.11694336 226.74291992 C-228.5260266 224.95929327 -230.0115439 223.30278876 -231.5703125 221.6484375 C-232.11800293 221.0387915 -232.66569336 220.42914551 -233.22998047 219.80102539 C-234.84816415 218.00543209 -236.48685155 216.23105387 -238.1328125 214.4609375 C-250.11552662 201.38888574 -259.97945484 187.45907798 -269.66577148 172.63647461 C-271.79287438 169.46935668 -271.79287438 169.46935668 -274.1328125 166.4609375 C-274.7928125 166.4609375 -275.4528125 166.4609375 -276.1328125 166.4609375 Z M-211.5703125 235.2734375 C-215.19442696 240.34719774 -215.80916764 246.38465016 -215.1328125 252.4609375 C-214.05646732 258.77223421 -212.42295235 263.40495673 -207.140625 267.26171875 C-202.57110334 269.99098558 -198.85811578 271.93353345 -193.4296875 270.9921875 C-186.47481485 268.73865335 -179.06282909 264.86064292 -174.91015625 258.625 C-172.36166598 251.530208 -173.43441807 242.25301522 -176.5546875 235.49609375 C-180.31454392 230.64736801 -186.19380971 229.83990357 -191.98046875 229.09375 C-199.60044992 228.72936271 -205.48121707 230.74564859 -211.5703125 235.2734375 Z M-284.6953125 280.2734375 C-285.10458984 280.79752197 -285.51386719 281.32160645 -285.93554688 281.86157227 C-287.36244889 283.70850674 -288.74894017 285.58155985 -290.1328125 287.4609375 C-290.67921387 288.19473633 -291.22561523 288.92853516 -291.78857422 289.68457031 C-294.79700196 293.72664571 -297.78077126 297.78558865 -300.74609375 301.859375 C-303.51922931 305.65549634 -306.39230562 309.34597258 -309.3203125 313.0234375 C-317.49637899 323.57407115 -324.60608642 335.308247 -330.1328125 347.4609375 C-315.49652834 343.42334187 -304.42796952 334.60067501 -293.01855469 325.02441406 C-288.76810688 321.5003504 -284.35069786 318.18981948 -279.95605469 314.84863281 C-277.02414123 312.61711218 -274.0995074 310.37608406 -271.17358398 308.13671875 C-267.8278919 305.57651283 -264.4804552 303.01859204 -261.1328125 300.4609375 C-263.33332168 291.48517639 -266.23996377 281.97802617 -273.1328125 275.4609375 C-279.00732722 274.40484497 -281.1582264 275.64801721 -284.6953125 280.2734375 Z M-56.1328125 276.4609375 C-57.41269969 278.37934264 -57.41269969 278.37934264 -58.6953125 280.8359375 C-62.13550041 286.76816397 -66.39723166 291.53393599 -71.1328125 296.4609375 C-71.73222656 297.1003125 -72.33164062 297.7396875 -72.94921875 298.3984375 C-76.78171712 302.3821017 -80.91287376 305.6693953 -85.41015625 308.8828125 C-86.26287109 309.66398437 -86.26287109 309.66398437 -87.1328125 310.4609375 C-87.1328125 311.4509375 -87.1328125 312.4409375 -87.1328125 313.4609375 C-77.44845812 315.63458017 -65.43975823 317.82950386 -56.1328125 313.4609375 C-50.82276624 308.78068743 -48.41682193 303.91331184 -47.83203125 296.8046875 C-47.82816406 295.53625 -47.82429688 294.2678125 -47.8203125 292.9609375 C-47.80355469 291.6925 -47.78679687 290.4240625 -47.76953125 289.1171875 C-48.23266845 284.45593564 -49.70550287 281.17370906 -52.6953125 277.5859375 C-54.09108329 276.25550141 -54.09108329 276.25550141 -56.1328125 276.4609375 Z M-188.12280273 283.3527832 C-194.70012351 284.7172479 -200.08894075 284.31637191 -206.5703125 282.9453125 C-211.92127054 281.93385092 -217.48981681 280.97651526 -222.4140625 283.7421875 C-227.05994875 287.67332202 -230.70335629 292.4596472 -234.1328125 297.4609375 C-208.5314049 317.15432796 -175.70577628 323.8487444 -143.9453125 319.7109375 C-138.35513648 318.70383007 -133.27340249 316.85136987 -128.1328125 314.4609375 C-129.69607552 310.02294918 -133.23499953 307.67393081 -136.8203125 304.8984375 C-137.48442139 304.37830078 -138.14853027 303.85816406 -138.83276367 303.32226562 C-140.92543459 301.69208656 -143.02847593 300.07601826 -145.1328125 298.4609375 C-145.79700195 297.94418457 -146.46119141 297.42743164 -147.14550781 296.89501953 C-154.42390475 291.24711381 -161.19109299 286.13539775 -170.1328125 283.4609375 C-171.9271875 282.749375 -171.9271875 282.749375 -173.7578125 282.0234375 C-178.60791844 280.86020071 -183.35610879 282.32879412 -188.12280273 283.3527832 Z " fill="currentColor" transform="translate(422.1328125,55.5390625)"/>
<path d="M0 0 C2.13088802 1.7493576 3.717648 3.47421713 5.36328125 5.68359375 C5.88535156 6.38097656 6.40742188 7.07835937 6.9453125 7.796875 C10.56534195 13.41141104 11.09061186 18.13761825 10.36328125 24.68359375 C10.22019531 26.03324219 10.22019531 26.03324219 10.07421875 27.41015625 C9.10861298 34.13152978 7.43333994 42.63104973 1.69140625 46.9375 C-7.37327058 51.08880111 -19.30108598 50.86129952 -28.63671875 47.68359375 C-33.92887407 44.73219944 -38.65479029 41.26944393 -40.8515625 35.484375 C-42.90054512 25.5938805 -43.16561415 17.48887161 -37.63671875 8.68359375 C-28.51154619 -1.67471024 -12.98207808 -6.48142269 0 0 Z " fill="currentColor" transform="translate(334.63671875,276.31640625)"/>
<path d="M0 0 C2.86335152 2.75322262 3.90325805 4.39180611 4.53125 8.33984375 C4.42718933 20.31982842 4.42718933 20.31982842 0 25 C-0.36867187 25.5259375 -0.73734375 26.051875 -1.1171875 26.59375 C-5.48332708 29.85476711 -12.8504902 29.08714124 -18.09570312 28.47802734 C-21.16823348 27.70674344 -22.37477666 26.23441692 -24.0625 23.625 C-26.98483026 16.81904664 -26.96962907 10.53287579 -24.875 3.5 C-23 0 -23 0 -20.3125 -1.5 C-13.72993442 -2.4935948 -6.22202529 -2.7718421 0 0 Z " fill="currentColor" transform="translate(245,217)"/>
<path d="M0 0 C3.375 1.625 3.375 1.625 5 5 C5.75081917 10.81709431 6.53573851 17.54834322 3.1875 22.6875 C2.465625 23.450625 1.74375 24.21375 1 25 C0.59136719 25.55558594 0.18273437 26.11117187 -0.23828125 26.68359375 C-2 28 -2 28 -4.9609375 27.9609375 C-6.08757812 27.76757812 -7.21421875 27.57421875 -8.375 27.375 C-10.05722656 27.10816406 -10.05722656 27.10816406 -11.7734375 26.8359375 C-15.05197963 25.98653312 -17.29148679 25.02040445 -20 23 C-21.888749 18.3230977 -22.70184971 14.00067918 -22 9 C-16.38905135 -0.6212279 -10.82968629 -1.00158948 0 0 Z " fill="currentColor" transform="translate(414,172)"/>
<path d="M0 0 C4.9723422 1.49170266 9.41845739 3.60457417 14 6 C12.50829734 10.9723422 10.39542583 15.41845739 8 20 C4.2397015 19.41892368 1.46964968 18.34800504 -1.8125 16.4375 C-2.60269531 15.98246094 -3.39289063 15.52742187 -4.20703125 15.05859375 C-4.79871094 14.70925781 -5.39039063 14.35992187 -6 14 C-5.41892368 10.2397015 -4.34800504 7.46964968 -2.4375 4.1875 C-1.98246094 3.39730469 -1.52742187 2.60710937 -1.05859375 1.79296875 C-0.53458984 0.90544922 -0.53458984 0.90544922 0 0 Z " fill="currentColor" transform="translate(225,160)"/>
<path d="M0 0 C6.49181623 0.51522351 11.88140082 1.76622569 18 4 C16.02 8.29 14.04 12.58 12 17 C5 16 5 16 0 14 C0 9.38 0 4.76 0 0 Z " fill="currentColor" transform="translate(154,285)"/>
<path d="M0 0 C3.63 0 7.26 0 11 0 C10.69147815 1.958964 10.3780582 3.91715713 10.0625 5.875 C9.88847656 6.96554687 9.71445313 8.05609375 9.53515625 9.1796875 C9 12 9 12 8 14 C4.62537285 13.45276317 2.91765 12.9451 0 11 C-0.41620943 7.30406029 -0.13007474 3.72880913 0 0 Z " fill="currentColor" transform="translate(228,349)"/>
<path d="M0 0 C4.29 0.99 8.58 1.98 13 3 C13 6 13 6 10.6875 8.5 C9.800625 9.325 8.91375 10.15 8 11 C7.401875 11.598125 6.80375 12.19625 6.1875 12.8125 C5.795625 13.204375 5.40375 13.59625 5 14 C4.01 13.67 3.02 13.34 2 13 C0.49963699 8.26201154 0 5.03349934 0 0 Z " fill="currentColor" transform="translate(344,224)"/>
<path d="M0 0 C0.66 0.33 1.32 0.66 2 1 C-5 8 -12 15 -19 22 C-19.99 21.67 -20.98 21.34 -22 21 C-6.85106383 5.65957447 -6.85106383 5.65957447 0 0 Z " fill="currentColor" transform="translate(170,161)"/>
<path d="M0 0 C2.97 0.33 5.94 0.66 9 1 C9 1.33 9 1.66 9 2 C6.69 2 4.38 2 2 2 C2.05995322 3.79260132 2.1487241 5.58425795 2.25 7.375 C2.29640625 8.37273437 2.3428125 9.37046875 2.390625 10.3984375 C2.72160885 13.1526477 2.72160885 13.1526477 5.046875 14.3515625 C5.69140625 14.56554687 6.3359375 14.77953125 7 15 C6.01 15.495 6.01 15.495 5 16 C2.525 15.01 2.525 15.01 0 14 C0 9.38 0 4.76 0 0 Z " fill="currentColor" transform="translate(154,285)"/>
<path d="M0 0 C-0.60328125 0.24234375 -1.2065625 0.4846875 -1.828125 0.734375 C-6.3714648 2.63964653 -9.66586737 4.26577146 -13 8 C-13.66 8 -14.32 8 -15 8 C-13.49364535 3.78220697 -10.75987578 2.2252326 -7 0 C-3.86650268 -1.04449911 -3.01031744 -0.93423645 0 0 Z " fill="currentColor" transform="translate(399,55)"/>
<path d="M0 0 C0.66 0.66 1.32 1.32 2 2 C-0.97 4.97 -3.94 7.94 -7 11 C-7.66 10.67 -8.32 10.34 -9 10 C-6.03 6.7 -3.06 3.4 0 0 Z " fill="currentColor" transform="translate(295,229)"/>
<path d="M0 0 C0.33 0.99 0.66 1.98 1 3 C-0.98 4.98 -2.96 6.96 -5 9 C-5.66 8.67 -6.32 8.34 -7 8 C-4.69 5.36 -2.38 2.72 0 0 Z " fill="currentColor" transform="translate(305,218)"/>
<path d="M0 0 C0 3.58912412 -0.66436554 4.10857029 -3 6.6875 C-3.556875 7.31011719 -4.11375 7.93273437 -4.6875 8.57421875 C-5.120625 9.04472656 -5.55375 9.51523437 -6 10 C-6.33 8.68 -6.66 7.36 -7 6 C-4.69 4.02 -2.38 2.04 0 0 Z " fill="currentColor" transform="translate(266,260)"/>
</svg>
