<?xml version="1.0" encoding="UTF-8"?>
<svg version="1.1" xmlns="http://www.w3.org/2000/svg" width="350" height="100">
<path d="M0 0 C5.61 0 11.22 0 17 0 C17 6.27 17 12.54 17 19 C19.31 18.34 21.62 17.68 24 17 C29.48258678 16.51048332 33.1777997 17.32099983 38 20 C44.21366767 26.07244795 46.15853444 32.3014584 46.4375 40.875 C46.31291022 47.31213844 44.92956482 52.30558484 42 58 C41.505 58.99 41.505 58.99 41 60 C40.34 60 39.68 60 39 60 C38.67 60.99 38.34 61.98 38 63 C33.38286315 66.36713151 28.68703448 67.8124335 23 67 C20.21251214 65.85944059 17.60178075 64.51376334 15 63 C14.505 63.99 14.505 63.99 14 65 C9.38 65 4.76 65 0 65 C0 43.55 0 22.1 0 0 Z M17 34 C16.69669661 36.75946614 16.58165142 39.24495685 16.625 42 C16.61339844 42.73734375 16.60179687 43.4746875 16.58984375 44.234375 C16.56590998 46.62815569 16.56590998 46.62815569 17 50 C19.74605843 52.24621573 19.74605843 52.24621573 22.5 51.9375 C25.11002772 51.16970863 25.11002772 51.16970863 26.8125 49.0625 C28.51275355 44.67763557 28.71254399 40.64328114 28 36 C26.4548843 33.28351423 26.4548843 33.28351423 24 32 C19.95377498 31.63019987 19.95377498 31.63019987 17 34 Z " fill="currentColor" transform="translate(291,17)"/>
<path d="M0 0 C5.94 0 11.88 0 18 0 C18.03738281 2.21460938 18.07476562 4.42921875 18.11328125 6.7109375 C18.15947375 8.85231488 18.21071533 10.99351586 18.26245117 13.13476562 C18.29573463 14.62456572 18.32375597 16.11449295 18.34643555 17.60449219 C18.37992071 19.74469252 18.43222789 21.88372419 18.48828125 24.0234375 C18.51446533 25.31169434 18.54064941 26.59995117 18.56762695 27.92724609 C18.71031006 28.94125488 18.85299316 29.95526367 19 31 C19.99 31.66 20.98 32.32 22 33 C23.98 32.505 23.98 32.505 26 32 C26.33 21.44 26.66 10.88 27 0 C32.94 0 38.88 0 45 0 C45 15.84 45 31.68 45 48 C40.05 48 35.1 48 30 48 C29.34 47.01 28.68 46.02 28 45 C27.05125 45.66 26.1025 46.32 25.125 47 C20.49354745 49.62511481 16.20315265 49.81012168 11 49 C6.58035684 47.60388842 4.34832094 45.65019908 2.125 41.5 C1.568125 39.7675 1.568125 39.7675 1 38 C0.81381104 37.42926758 0.62762207 36.85853516 0.43579102 36.27050781 C-0.2083368 32.91454778 -0.12194769 29.57495208 -0.09765625 26.171875 C-0.0962413 25.42286926 -0.09482635 24.67386353 -0.09336853 23.90216064 C-0.08778659 21.51806588 -0.07523745 19.13406622 -0.0625 16.75 C-0.05748266 15.13020969 -0.05292016 13.51041791 -0.04882812 11.890625 C-0.03867544 7.92701752 -0.01909665 3.96361479 0 0 Z " fill="currentColor" transform="translate(132,35)"/>
<path d="M0 0 C5.94 0 11.88 0 18 0 C18.33 10.89 18.66 21.78 19 33 C23.86132495 32.50847518 23.86132495 32.50847518 26 30 C26.37322427 26.89243985 26.37322427 26.89243985 26.4140625 23.2421875 C26.43342865 22.57913605 26.4527948 21.91608459 26.4727478 21.23294067 C26.53255954 19.11375823 26.57893388 16.9945215 26.625 14.875 C26.66317845 13.43877831 26.70223011 12.00257955 26.7421875 10.56640625 C26.83990819 7.04438971 26.91945876 3.52261928 27 0 C32.94 0 38.88 0 45 0 C45 15.84 45 31.68 45 48 C40.05 48 35.1 48 30 48 C30 46.68 30 45.36 30 44 C29.07380859 44.54140625 29.07380859 44.54140625 28.12890625 45.09375 C22.33366029 48.26922724 17.63499128 50.28260055 11 49 C7.48774463 47.94493515 5.04177871 46.38587025 2.82250977 43.43359375 C-1.40743867 35.30420972 -0.43404631 26.33683364 -0.25 17.4375 C-0.22990488 15.74416174 -0.21165943 14.05080047 -0.1953125 12.35742188 C-0.15497789 8.23724127 -0.07665672 4.12029877 0 0 Z " fill="currentColor" transform="translate(43,35)"/>
<path d="M0 0 C3.4700142 3.12091821 5.53329058 6.59987174 7 11 C7.08518867 13.80426452 7.1158852 16.5829635 7.09765625 19.38671875 C7.0962413 20.20372757 7.09482635 21.02073639 7.09336853 21.86250305 C7.08777294 24.47087268 7.07522129 27.07915634 7.0625 29.6875 C7.05748443 31.45637897 7.05292162 33.22525928 7.04882812 34.99414062 C7.03865603 39.32948682 7.01907979 43.66464722 7 48 C1.06 48 -4.88 48 -11 48 C-11.33 37.11 -11.66 26.22 -12 15 C-14.31 15.66 -16.62 16.32 -19 17 C-19.33 27.23 -19.66 37.46 -20 48 C-25.94 48 -31.88 48 -38 48 C-38 32.16 -38 16.32 -38 0 C-33.05 0 -28.1 0 -23 0 C-23 1.32 -23 2.64 -23 4 C-21.96875 3.360625 -20.9375 2.72125 -19.875 2.0625 C-13.79035802 -1.3623883 -6.71073141 -2.16440122 0 0 Z " fill="currentColor" transform="translate(223,35)"/>
<path d="M0 0 C5.61 0 11.22 0 17 0 C17.06058594 1.87945312 17.12117188 3.75890625 17.18359375 5.6953125 C17.26802226 8.17188206 17.3526691 10.64844419 17.4375 13.125 C17.47681641 14.3625 17.51613281 15.6 17.55664062 16.875 C17.59853516 18.07382812 17.64042969 19.27265625 17.68359375 20.5078125 C17.72025146 21.60754395 17.75690918 22.70727539 17.79467773 23.84033203 C17.99683479 26.95129116 18.43289894 29.93644338 19 33 C19.763125 32.690625 20.52625 32.38125 21.3125 32.0625 C23.18789677 31.32106407 25.08684652 30.63771783 27 30 C27 20.1 27 10.2 27 0 C32.61 0 38.22 0 44 0 C44 15.51 44 31.02 44 47 C39.05 47 34.1 47 29 47 C28.67 46.01 28.34 45.02 28 44 C27.0925 44.639375 26.185 45.27875 25.25 45.9375 C20.3844041 49.02528201 16.7872056 49.49044115 11 49 C5.96317911 47.25081116 3.47995337 44.76418884 0.85820007 40.06040955 C-0.65531986 36.42667538 -0.49144895 32.88678404 -0.390625 29.00390625 C-0.38496521 28.17036118 -0.37930542 27.3368161 -0.37347412 26.47801208 C-0.35124195 23.83890168 -0.30107305 21.2011938 -0.25 18.5625 C-0.22991787 16.76369161 -0.21167011 14.96486174 -0.1953125 13.16601562 C-0.15483638 8.77638045 -0.07652821 4.38974332 0 0 Z " fill="currentColor" transform="translate(238,35)"/>
<path d="M0 0 C1.40378906 -0.02126953 1.40378906 -0.02126953 2.8359375 -0.04296875 C5.78618154 0.20081892 7.94864112 0.95637492 10.625 2.1875 C10.48351011 3.7920556 10.33664314 5.39613767 10.1875 7 C10.10628906 7.89332031 10.02507813 8.78664063 9.94140625 9.70703125 C9.625 12.1875 9.625 12.1875 8.625 15.1875 C5.655 15.1875 2.685 15.1875 -0.375 15.1875 C-0.705 16.5075 -1.035 17.8275 -1.375 19.1875 C1.265 19.1875 3.905 19.1875 6.625 19.1875 C6.625 24.1375 6.625 29.0875 6.625 34.1875 C3.985 34.1875 1.345 34.1875 -1.375 34.1875 C-1.375 45.0775 -1.375 55.9675 -1.375 67.1875 C-6.985 67.1875 -12.595 67.1875 -18.375 67.1875 C-18.375 56.2975 -18.375 45.4075 -18.375 34.1875 C-20.355 34.1875 -22.335 34.1875 -24.375 34.1875 C-24.375 29.2375 -24.375 24.2875 -24.375 19.1875 C-22.395 19.1875 -20.415 19.1875 -18.375 19.1875 C-18.33761719 18.59582031 -18.30023437 18.00414063 -18.26171875 17.39453125 C-17.86589304 12.63686146 -17.51773998 8.98046205 -14.375 5.1875 C-9.52582458 1.55061843 -6.02346232 0.04125659 0 0 Z " fill="currentColor" transform="translate(32.375,15.8125)"/>
<path d="M0 0 C1.93166016 0.01740234 1.93166016 0.01740234 3.90234375 0.03515625 C5.19269531 0.04417969 6.48304687 0.05320312 7.8125 0.0625 C8.81152344 0.07410156 9.81054688 0.08570312 10.83984375 0.09765625 C10.83984375 4.05765625 10.83984375 8.01765625 10.83984375 12.09765625 C14.46984375 12.09765625 18.09984375 12.09765625 21.83984375 12.09765625 C21.83984375 17.04765625 21.83984375 21.99765625 21.83984375 27.09765625 C18.20984375 27.09765625 14.57984375 27.09765625 10.83984375 27.09765625 C10.95462788 29.16075001 11.08210573 31.22313979 11.21484375 33.28515625 C11.28445312 34.43371094 11.3540625 35.58226562 11.42578125 36.765625 C11.81493949 39.89724742 12.52082885 42.25051434 13.83984375 45.09765625 C16.47984375 45.42765625 19.11984375 45.75765625 21.83984375 46.09765625 C22.94213071 50.50680408 22.91638911 54.58148026 22.83984375 59.09765625 C17.81835016 62.08664053 12.5052695 61.69248968 6.83984375 61.09765625 C2.89433132 59.88075734 -0.07336189 58.14822413 -3.03515625 55.28515625 C-6.2671867 49.0006526 -6.42196795 43.07967094 -6.28515625 36.16015625 C-6.27613281 35.28552734 -6.26710938 34.41089844 -6.2578125 33.50976562 C-6.23445195 31.37227561 -6.19858872 29.23492839 -6.16015625 27.09765625 C-8.14015625 27.09765625 -10.12015625 27.09765625 -12.16015625 27.09765625 C-12.16015625 22.47765625 -12.16015625 17.85765625 -12.16015625 13.09765625 C-9.85015625 12.43765625 -7.54015625 11.77765625 -5.16015625 11.09765625 C-5.09957031 10.38738281 -5.03898437 9.67710938 -4.9765625 8.9453125 C-4.89277344 8.02621094 -4.80898437 7.10710938 -4.72265625 6.16015625 C-4.64144531 5.24363281 -4.56023437 4.32710937 -4.4765625 3.3828125 C-3.985646 -0.16269559 -3.70665868 0.11454446 0 0 Z " fill="currentColor" transform="translate(104.16015625,22.90234375)"/>
</svg>
